Coordinates
version=1
nRows=5
nColumns=40
inDegrees=yes

Units are S.I. units (second, meters, Newtons, ...)
Angles are in degrees.

endheader
time	pelvis_tilt	pelvis_list	pelvis_rotation	pelvis_tx	pelvis_ty	pelvis_tz	hip_flexion_r	hip_adduction_r	hip_rotation_r	knee_angle_r	knee_angle_r_beta	ankle_angle_r	subtalar_angle_r	mtp_angle_r	hip_flexion_l	hip_adduction_l	hip_rotation_l	knee_angle_l	knee_angle_l_beta	ankle_angle_l	subtalar_angle_l	mtp_angle_l	lumbar_extension	lumbar_bending	lumbar_rotation	arm_flex_r	arm_add_r	arm_rot_r	elbow_flex_r	pro_sup_r	wrist_flex_r	wrist_dev_r	arm_flex_l	arm_add_l	arm_rot_l	elbow_flex_l	pro_sup_l	wrist_flex_l	wrist_dev_l
     10.50000000	     -3.27060423	     19.79013012	     85.01561832	      0.69784550	      0.99321816	     -1.12826082	      4.15287748	     -8.43236905	      4.77798438	     27.57547236	      0.48128279	     12.56035956	      0.00000000	      0.00000000	     11.40954584	      2.12054782	    -13.86525101	     64.93461624	      1.13332285	     23.76534399	      0.00000000	      0.00000000	    -36.23130119	      1.10595052	     16.08699531	     -8.94307497	    -21.00326704	     -2.92194260	    148.89543637	     88.31535437	      0.00000000	      0.00000000	    -17.50390862	      0.01404394	     -6.04718323	    140.10287813	     86.29854644	      0.00000000	      0.00000000
     10.51000000	     -3.63482401	     19.99524257	     85.44785358	      0.69731470	      0.99801389	     -1.12694239	      2.38545006	     -9.00786115	      3.99456610	     26.32037928	      0.45937728	     12.44398882	      0.00000000	      0.00000000	     11.71905626	      2.57199778	    -14.13531754	     62.99550859	      1.09947904	     23.37440091	      0.00000000	      0.00000000	    -36.52222834	      1.09460112	     15.74429537	     -9.03195100	    -20.08785324	     -2.62567829	    148.75240406	     88.30974643	      0.00000000	      0.00000000	    -17.47819647	      0.02940436	     -5.44694104	    140.22815145	     86.12910341	      0.00000000	      0.00000000
     10.52000000	     -3.84700955	     19.46573527	     85.63825335	      0.69658686	      1.00161981	     -1.12561759	      1.63148715	     -9.31736484	      3.69626238	     25.34816654	      0.44240897	     12.12501624	      0.00000000	      0.00000000	     12.85022153	      2.75364884	    -14.44969349	     61.10846407	      1.06654390	     22.92762291	      0.00000000	      0.00000000	    -36.01287946	      1.17438749	     15.57015677	     -9.27934105	    -19.23488760	     -2.33741758	    148.54161301	     88.24774524	      0.00000000	      0.00000000	    -17.50950581	     -0.01700257	     -4.96519876	    140.39039756	     86.02161518	      0.00000000	      0.00000000
     10.53000000	     -4.16276563	     20.87186388	     86.38634324	      0.69474795	      1.00923936	     -1.12563617	     -2.18337685	     -9.93409455	      2.48998101	     22.99480397	      0.40133504	     11.51452360	      0.00000000	      0.00000000	     11.19343380	      3.53799138	    -14.00704577	     58.09175188	      1.01389234	     21.89919348	      0.00000000	      0.00000000	    -37.41122989	      1.36877656	     14.78668357	     -9.46250011	    -18.44642628	     -2.20041556	    148.43869701	     88.25953766	      0.00000000	      0.00000000	    -17.45281548	     -0.19798154	     -4.61353120	    140.61355304	     85.80064022	      0.00000000	      0.00000000
     10.54000000	     -4.54994578	     21.04067438	     86.69951250	      0.69397993	      1.01408663	     -1.12501914	     -4.01871046	    -10.43727407	      1.90626580	     21.46271648	      0.37459507	     11.51800262	      0.00000000	      0.00000000	     11.05023209	      4.00494331	    -14.06510652	     55.45422958	      0.96785889	     20.67547701	      0.00000000	      0.00000000	    -37.54496433	      1.24504780	     14.24576808	     -9.64669481	    -17.54089728	     -1.82050097	    148.23368975	     88.24626665	      0.00000000	      0.00000000	    -17.49524082	     -0.56648143	     -4.51615098	    140.97921017	     85.60305691	      0.00000000	      0.00000000
